<svg width="95" height="85" xmlns="http://www.w3.org/2000/svg"><g fill-rule="nonzero" fill="none"><path d="M88.173 48.28V36.947h-7.815c-.851-4.987-2.78-9.436-5.532-13.348l6.023-6.023-8.072-8.071-6.319 6.023c-3.912-2.753-8.431-4.68-13.645-5.532V1.36H41.48v8.636c-4.76.851-9.183 2.78-13.095 5.532L22.49 9.505l-8.008 8.072 6.055 6.022a32.437 32.437 0 0 0-5.5 13.348H6.12V48.28h8.916c.85 5.213 2.779 9.48 5.532 13.392l-6.023 6.044 8.071 8.083 5.769-6.018c3.912 2.753 8.335 4.686 13.095 5.538v8.094h11.333V75.32c5.214-.852 9.733-2.78 13.645-5.532l6.171 6.023 8.146-8.072-5.986-6.066c2.753-3.912 4.718-8.179 5.569-13.392h7.815zM47.697 65.807c-12.786 0-23.15-10.364-23.15-23.15 0-12.785 10.364-23.15 23.15-23.15 12.785 0 23.15 10.365 23.15 23.15 0 12.786-10.365 23.15-23.15 23.15z" fill="#D3E6F8"/><path d="M52.587 84.773H41.253a1.36 1.36 0 0 1-1.36-1.36V75.98c-4.005-.863-7.838-2.49-11.423-4.847l-4.86 5.196c-.251.269-.6.424-.969.43a1.335 1.335 0 0 1-.983-.395l-8.072-8.025a1.361 1.361 0 0 1 .005-1.934l5.215-5.135c-2.336-3.566-4.01-7.546-4.888-11.629H5.893a1.36 1.36 0 0 1-1.36-1.36V36.947c0-.752.61-1.36 1.36-1.36h8.013c.889-4.379 2.556-8.508 4.87-12.063l-5.3-5.457a1.36 1.36 0 0 1 .01-1.903l7.98-8.063c.255-.258.603-.394.967-.394h.006c.366 0 .715.141.97.404l5.043 5.197c3.612-2.38 7.45-4.023 11.441-4.886V1.36c0-.75.61-1.36 1.36-1.36h11.334c.75 0 1.36.61 1.36 1.36v7.05c4.403.899 8.684 2.629 12.263 4.956l5.64-5.257a1.36 1.36 0 0 1 1.893.037l8.071 8.129a1.36 1.36 0 0 1 .006 1.91l-5.244 5.343c2.345 3.595 4.026 7.723 4.91 12.059h6.46c.752 0 1.36.608 1.36 1.36V48.28a1.36 1.36 0 0 1-1.36 1.36h-6.47c-.876 4.037-2.565 8.016-4.937 11.626l5.159 5.042a1.36 1.36 0 0 1 .005 1.94l-8.175 8.072a1.36 1.36 0 0 1-1.9.01l-5.436-5.257c-3.55 2.302-7.825 4.018-12.245 4.917v7.423c0 .752-.61 1.36-1.36 1.36zm-9.974-2.72h8.614v-7.192c0-.662.477-1.229 1.13-1.34 4.826-.824 9.516-2.707 13.205-5.304a1.36 1.36 0 0 1 1.728.135l5.273 5.1 6.243-6.166-4.982-4.87a1.36 1.36 0 0 1-.161-1.755c2.719-3.864 4.571-8.228 5.356-12.62a1.36 1.36 0 0 1 1.34-1.12h6.228v-8.614h-6.23a1.36 1.36 0 0 1-1.34-1.13c-.808-4.74-2.642-9.243-5.303-13.024a1.36 1.36 0 0 1 .141-1.735l5.083-5.179L72.741 11l-5.469 5.096a1.36 1.36 0 0 1-1.71.117c-3.723-2.62-8.413-4.514-13.204-5.332a1.36 1.36 0 0 1-1.131-1.34V2.72h-8.614v6.819a1.36 1.36 0 0 1-1.12 1.339c-4.358.779-8.543 2.564-12.439 5.305a1.361 1.361 0 0 1-1.759-.165l-4.872-5.026-6.067 6.136 5.142 5.295a1.36 1.36 0 0 1 .136 1.73c-2.621 3.725-4.44 8.227-5.258 13.022a1.36 1.36 0 0 1-1.34 1.131H7.252v8.614h7.783a1.36 1.36 0 0 1 1.338 1.12c.797 4.456 2.632 8.82 5.306 12.62a1.36 1.36 0 0 1-.158 1.752l-5.044 4.966 6.103 6.068 4.698-5.023a1.36 1.36 0 0 1 1.776-.183c3.865 2.72 8.05 4.498 12.438 5.283a1.36 1.36 0 0 1 1.12 1.338v7.192z" fill="#4C4372"/><path d="M47.697 66.71c-13.515 0-24.51-10.995-24.51-24.51 0-13.515 10.995-24.51 24.51-24.51 13.515 0 24.51 10.995 24.51 24.51 0 13.515-10.995 24.51-24.51 24.51zm0-46.3c-12.015 0-21.79 9.775-21.79 21.79 0 12.015 9.775 21.79 21.79 21.79 12.015 0 21.79-9.775 21.79-21.79 0-12.015-9.775-21.79-21.79-21.79z" fill="#4C4372"/><path d="M1.41 83.454v-4.051a9.815 9.815 0 0 1 4.672-8.36l11.18-6.877h5.901l11.18 6.877a9.815 9.815 0 0 1 4.672 8.36v4.05H1.41z" fill="#D3E6F8"/><path d="M34.354 71.044l-1.94-1.218v13.587h6.573v-4.01c0-3.408-1.73-6.573-4.633-8.36z" fill="#A4CFF2"/><path d="M39.016 84.814H1.41a1.36 1.36 0 0 1-1.36-1.36v-4.051c0-3.853 2.038-7.5 5.32-9.518l11.18-6.877a1.36 1.36 0 0 1 .712-.202h5.901c.252 0 .499.07.713.202l11.18 6.877a11.247 11.247 0 0 1 5.32 9.518v4.051c0 .751-.61 1.36-1.36 1.36zM2.77 82.094h34.886v-2.691A8.51 8.51 0 0 0 33.63 72.2l-10.853-6.675h-5.131L6.795 72.201a8.51 8.51 0 0 0-4.025 7.202v2.691z" fill="#4C4372"/><path d="M20.213 68.424a9.275 9.275 0 0 1-9.275-9.275v-6.335a9.275 9.275 0 0 1 18.55 0v6.335a9.275 9.275 0 0 1-9.275 9.275z" fill="#FFF"/><path d="M20.213 69.784c-5.865 0-10.636-4.771-10.636-10.635v-6.334c0-5.865 4.771-10.636 10.636-10.636 5.864 0 10.635 4.771 10.635 10.636v6.334c0 5.864-4.771 10.635-10.635 10.635zm0-24.885c-4.365 0-7.916 3.551-7.916 7.916v6.334c0 4.364 3.551 7.915 7.916 7.915 4.364 0 7.915-3.55 7.915-7.915v-6.334c0-4.365-3.551-7.916-7.915-7.916z" fill="#4C4372"/><path d="M55.278 83.454v-4.051a9.815 9.815 0 0 1 4.672-8.36l11.18-6.877h5.901l11.18 6.877a9.815 9.815 0 0 1 4.673 8.36v4.05H55.278z" fill="#A4CFF2"/><path d="M88.074 71.044l-1.94-1.218v13.587h6.573v-4.01c0-3.408-1.73-6.573-4.633-8.36z" fill="#7BABF1"/><path d="M92.884 84.814H55.278a1.36 1.36 0 0 1-1.36-1.36v-4.051c0-3.853 2.038-7.5 5.32-9.518l11.18-6.877c.214-.132.46-.202.712-.202h5.901c.252 0 .499.07.713.202l11.18 6.877a11.246 11.246 0 0 1 5.32 9.518v4.051c0 .751-.61 1.36-1.36 1.36zm-36.247-2.72h34.887v-2.691a8.51 8.51 0 0 0-4.025-7.202l-10.853-6.675h-5.131l-10.852 6.675a8.51 8.51 0 0 0-4.026 7.202v2.691z" fill="#4C4372"/><path d="M74.08 68.424a9.275 9.275 0 0 1-9.274-9.275v-6.335a9.275 9.275 0 0 1 18.55 0v6.335a9.275 9.275 0 0 1-9.275 9.275z" fill="#FFF"/><path d="M74.08 69.784c-5.864 0-10.634-4.771-10.634-10.635v-6.334c0-5.865 4.77-10.636 10.635-10.636 5.864 0 10.635 4.771 10.635 10.636v6.334c0 5.864-4.771 10.635-10.635 10.635zm0-24.885c-4.364 0-7.914 3.551-7.914 7.916v6.334c0 4.364 3.55 7.915 7.915 7.915 4.364 0 7.915-3.55 7.915-7.915v-6.334c0-4.365-3.551-7.916-7.915-7.916z" fill="#4C4372"/><path d="M25.94 83.517v-4.57c0-3.844 1.994-7.414 5.27-9.428l12.609-7.756h6.655l12.61 7.756a11.07 11.07 0 0 1 5.27 9.429v4.569H25.939z" fill="#FD919E"/><path d="M63.082 69.449l-2.335-1.374v15.338h7.706v-4.536c0-3.845-2.097-7.414-5.371-9.428z" fill="#E8677D"/><path d="M68.354 84.877H25.939c-.75 0-1.36-.61-1.36-1.36v-4.57c0-4.285 2.268-8.342 5.918-10.586l12.61-7.757a1.36 1.36 0 0 1 .712-.201h6.655c.252 0 .499.07.713.201l12.61 7.757c3.65 2.244 5.917 6.301 5.917 10.587v4.569a1.36 1.36 0 0 1-1.36 1.36zm-41.055-2.72h39.695v-3.21a9.772 9.772 0 0 0-4.623-8.27L50.09 63.123h-5.886l-12.281 7.554a9.773 9.773 0 0 0-4.623 8.27v3.21z" fill="#4C4372"/><path d="M47.147 66.565c-5.778 0-10.461-4.684-10.461-10.461V48.96c0-5.778 4.683-10.462 10.46-10.462 5.778 0 10.462 4.684 10.462 10.462v7.144c0 5.777-4.684 10.46-10.461 10.46z" fill="#FFF"/><path d="M47.147 67.925c-6.519 0-11.821-5.303-11.821-11.821V48.96c0-6.519 5.302-11.822 11.82-11.822 6.519 0 11.822 5.304 11.822 11.822v7.144c0 6.518-5.303 11.82-11.821 11.82zm0-28.067c-5.019 0-9.101 4.083-9.101 9.101v7.144c0 5.019 4.082 9.102 9.1 9.102 5.02 0 9.102-4.083 9.102-9.102V48.96c0-5.018-4.083-9.1-9.101-9.1z" fill="#4C4372"/></g></svg>