<svg width="90" height="85" xmlns="http://www.w3.org/2000/svg"><g fill-rule="nonzero" fill="none"><circle fill="#FD919E" cx="45.156" cy="58.104" r="24.853"/><circle fill="#D3E6F8" cx="63.365" cy="26.896" r="24.853"/><path d="M45.156 33.25c-.953 0-1.892.06-2.817.165 12.398 1.4 22.035 11.917 22.035 24.689s-9.637 23.289-22.035 24.69c.925.103 1.864.163 2.817.163 13.726 0 24.853-11.127 24.853-24.853 0-13.725-11.127-24.853-24.853-24.853z" fill="#E8677D"/><path d="M63.365 2.043c-1.007 0-1.999.067-2.975.183 12.323 1.471 21.878 11.951 21.878 24.67 0 12.718-9.555 23.199-21.878 24.67.976.116 1.968.183 2.975.183 13.726 0 24.853-11.127 24.853-24.853S77.091 2.043 63.365 2.043z" fill="#A4CFF2"/><path d="M45.156 84.55c-14.583 0-26.446-11.863-26.446-26.446 0-14.582 11.863-26.446 26.446-26.446 14.583 0 26.447 11.864 26.447 26.446 0 14.583-11.864 26.447-26.447 26.447zm0-49.705c-12.825 0-23.259 10.434-23.259 23.259 0 12.825 10.434 23.26 23.26 23.26 12.825 0 23.258-10.435 23.258-23.26 0-12.825-10.433-23.259-23.259-23.259z" fill="#4C4372"/><path d="M63.365 53.342c-14.582 0-26.446-11.864-26.446-26.446C36.919 12.313 48.783.45 63.365.45c14.583 0 26.447 11.864 26.447 26.447 0 14.582-11.864 26.446-26.447 26.446zm0-49.705c-12.825 0-23.259 10.434-23.259 23.26 0 12.824 10.434 23.258 23.26 23.258 12.824 0 23.258-10.434 23.258-23.259 0-12.825-10.434-23.26-23.259-23.26z" fill="#4C4372"/><circle fill="#FFF" cx="26.947" cy="26.896" r="24.853"/><path d="M26.947 53.342C12.364 53.342.5 41.478.5 26.896.5 12.313 12.364.45 26.947.45c14.583 0 26.447 11.864 26.447 26.447 0 14.582-11.864 26.446-26.447 26.446zm0-49.705c-12.825 0-23.26 10.434-23.26 23.26 0 12.824 10.435 23.258 23.26 23.258 12.826 0 23.26-10.434 23.26-23.259 0-12.825-10.435-23.26-23.26-23.26z" fill="#4C4372"/><path d="M21.311 51.099c1.812.42 3.697.65 5.636.65 11.292 0 20.82-7.535 23.845-17.848a24.907 24.907 0 0 0-5.636-.65c-11.292 0-20.82 7.535-23.845 17.848z" fill="#E8677D"/><path d="M38.512 26.896a24.76 24.76 0 0 0 6.644 16.907A24.76 24.76 0 0 0 51.8 26.896a24.76 24.76 0 0 0-6.644-16.907 24.76 24.76 0 0 0-6.644 16.907z" fill="#A4CFF2"/><path d="M39.52 33.9C42.546 44.215 52.073 51.75 63.365 51.75c1.94 0 3.825-.23 5.636-.65C65.976 40.786 56.448 33.25 45.156 33.25c-1.94 0-3.824.23-5.636.65z" fill="#7BABF1"/><path d="M26.947 53.342c-2.003 0-4.02-.232-5.996-.69a1.596 1.596 0 0 1-1.17-2.002c3.28-11.182 13.715-18.993 25.375-18.993 2 0 4.018.233 5.995.691a1.592 1.592 0 0 1 1.17 2.002c-3.28 11.182-13.714 18.992-25.374 18.992zM23.4 49.881c1.179.182 2.367.274 3.547.274 9.665 0 18.372-6.1 21.756-15.035a23.186 23.186 0 0 0-3.547-.275c-9.664 0-18.37 6.1-21.756 15.036z" fill="#4C4372"/><path d="M45.156 45.396c-.443 0-.866-.184-1.167-.509a26.358 26.358 0 0 1-7.07-17.991c0-6.694 2.51-13.084 7.07-17.992.603-.648 1.733-.648 2.335 0a26.36 26.36 0 0 1 7.07 17.992 26.36 26.36 0 0 1-7.07 17.991 1.595 1.595 0 0 1-1.168.51zm0-32.965a23.167 23.167 0 0 0-5.05 14.465c0 5.288 1.782 10.359 5.05 14.465a23.168 23.168 0 0 0 5.05-14.465 23.167 23.167 0 0 0-5.05-14.465z" fill="#4C4372"/><path d="M63.365 53.342c-11.66 0-22.094-7.81-25.374-18.992a1.593 1.593 0 0 1 1.17-2.002 26.585 26.585 0 0 1 5.995-.69c11.66 0 22.094 7.81 25.375 18.992a1.593 1.593 0 0 1-1.17 2.002c-1.976.458-3.993.69-5.996.69zM41.61 35.12c3.385 8.934 12.092 15.036 21.756 15.036 1.181 0 2.368-.092 3.548-.275-3.386-8.934-12.093-15.035-21.757-15.035-1.18 0-2.368.092-3.547.274z" fill="#4C4372"/><path d="M50.797 33.9c-1.813-.421-3.7-.65-5.64-.65-1.94 0-3.825.23-5.637.65.179.61.382 1.209.605 1.798l.054.144c.097.251.2.5.304.747l.105.244c.1.23.204.457.31.683l.139.285c.105.214.212.428.323.64.054.102.11.203.165.304.111.204.222.409.339.609.059.1.12.2.181.3.19.318.388.63.592.939.107.162.213.325.325.485.089.128.182.253.273.379.12.165.24.331.364.494.09.118.183.234.276.351a25.921 25.921 0 0 0 .676.819c.149.173.3.343.454.512l.154.167a24.842 24.842 0 0 0 5.638-9.9z" fill="#FFF"/><path d="M45.159 45.394h-.001c-.444 0-.867-.186-1.168-.511l-.16-.174a34.29 34.29 0 0 1-.487-.547l-.289-.34c-.144-.175-.287-.351-.428-.53l-.077-.098a17.582 17.582 0 0 1-.216-.276c-.127-.166-.248-.334-.37-.501l-.094-.129a19.33 19.33 0 0 1-.215-.3 24.81 24.81 0 0 1-.274-.406l-.072-.11a26.065 26.065 0 0 1-.63-.999l-.058-.095c-.046-.076-.093-.152-.137-.23-.121-.207-.24-.424-.357-.641l-.177-.325a28.183 28.183 0 0 1-.344-.681l-.147-.304a27.15 27.15 0 0 1-.33-.725l-.108-.252a27.751 27.751 0 0 1-.327-.802l-.057-.153a26.363 26.363 0 0 1-.645-1.915 1.596 1.596 0 0 1 1.17-2.002 26.51 26.51 0 0 1 11.996 0 1.595 1.595 0 0 1 1.169 2 26.566 26.566 0 0 1-5.999 10.536c-.302.325-.725.51-1.168.51zM41.61 35.119l.005.014.053.14c.088.229.183.462.282.693l.098.23c.093.213.19.427.29.638l.112.231c.115.237.216.438.32.636l.155.283c.104.192.207.382.315.568l.17.28c.179.299.363.592.554.88l.075.114c.076.114.151.23.23.342.054.078.112.158.17.237l.084.114c.126.174.232.32.341.464l.261.332.033.04a23.439 23.439 0 0 0 3.548-6.237 23.218 23.218 0 0 0-7.096 0z" fill="#4C4372"/></g></svg>