<svg width="82" height="85" xmlns="http://www.w3.org/2000/svg"><g fill-rule="nonzero" fill="none"><path d="M62.953 37.342C63.01 24.83 52.627 14.708 39.98 15.245c-11.178.474-20.34 9.408-21.047 20.574-.531 8.403 3.681 15.88 10.165 20.022a4.64 4.64 0 0 1 2.151 3.93l-.063 13.782a9.514 9.514 0 0 0 9.47 9.557h.048a9.52 9.52 0 0 0 9.564-9.476l.063-13.773c.008-1.576.808-3.053 2.146-3.885 6.21-3.862 10.44-10.754 10.476-18.634z" fill="#FFF"/><path d="M47.989 16.564c5.736 3.974 9.493 10.603 9.493 18.112 0 7.88-4.186 14.791-10.379 18.681-1.334.839-2.117 2.32-2.117 3.895v13.774c0 5.258-4.284 9.712-9.542 9.712h-.048c-.493 0-.977-.199-1.45-.27 1.723 1.729 4.107 2.638 6.74 2.638h.05c5.257 0 9.459-4.132 9.459-9.39V59.943a4.62 4.62 0 0 1 2.158-3.896c6.193-3.89 10.405-10.802 10.405-18.68 0-9.629-6.161-17.812-14.77-20.803z" fill="#D3E6F8"/><path d="M50.281 60.14H31.2l-.095-.085c0 .02-.087-.051-.087-.031v13.782c0 5.254 4.442 9.773 9.696 9.773h.048c5.258 0 9.67-4.522 9.67-9.78V60.025c0-.021-.07.05-.07.028l-.08.086z" fill="#FD919E"/><path d="M50.195 73.716V60.14h-5.209v10.887c0 5.258-4.284 9.712-9.542 9.712h-.048c-.493 0-.977-.199-1.45-.27 1.723 1.729 4.107 2.638 6.74 2.638h.05c5.257 0 9.459-4.132 9.459-9.39z" fill="#E8677D"/><path d="M40.86 84.531h-.048c-6.03 0-10.934-4.905-10.934-10.934V59.816a3.205 3.205 0 0 0-1.508-2.72 23.532 23.532 0 0 1-10.916-21.26c.337-5.75 2.806-11.168 6.951-15.254C28.547 16.499 34 14.1 39.757 13.83c.376-.018.757-.027 1.131-.027 12.92 0 23.43 10.514 23.43 23.438 0 8.103-4.132 15.536-11.054 19.884-.902.567-1.463 1.598-1.463 2.692V73.59c0 6.033-4.908 10.941-10.94 10.941zm.028-67.886c-.33 0-.666.008-.997.023-10.384.489-18.994 8.982-19.6 19.335a20.69 20.69 0 0 0 9.597 18.692 6.032 6.032 0 0 1 2.83 5.12v13.782c0 4.463 3.631 8.093 8.094 8.093h.048c4.467 0 8.1-3.633 8.1-8.1V59.818c0-2.093 1.044-3.999 2.793-5.098 6.09-3.825 9.724-10.359 9.724-17.478 0-11.357-9.236-20.596-20.589-20.596z" fill="#4C4372"/><path d="M40.761 85h-.048c-6.026 0-11.117-5.126-11.117-11.194V60.024a1.427 1.427 0 0 1 1.997-1.305h18.268a1.427 1.427 0 0 1 1.991 1.307v13.773c0 6.072-5.079 11.201-11.09 11.201zm-8.324-23.44v12.246c0 4.528 3.79 8.353 8.276 8.353h.048c4.472 0 8.25-3.829 8.25-8.36v-12.24H32.437z" fill="#4C4372"/><path d="M49.958 72.214H31.727a1.42 1.42 0 0 1 0-2.84h18.231a1.42 1.42 0 0 1 0 2.84zM40.724 9.234a1.42 1.42 0 0 1-1.42-1.42V1.42a1.42 1.42 0 0 1 2.84 0v6.392a1.42 1.42 0 0 1-1.42 1.421zM79.791 50.195h-6.156a1.42 1.42 0 0 1 0-2.841h6.156a1.42 1.42 0 0 1 0 2.841zM7.577 50.195H1.42a1.42 1.42 0 0 1 0-2.841h6.156a1.42 1.42 0 0 1 0 2.841zM70.71 21.315a1.42 1.42 0 0 1-1.004-2.425l4.411-4.41a1.42 1.42 0 1 1 2.01 2.008l-4.412 4.411c-.277.278-.64.416-1.004.416zM10.77 21.315c-.364 0-.727-.138-1.005-.416l-4.41-4.411a1.42 1.42 0 1 1 2.008-2.009l4.411 4.411a1.42 1.42 0 0 1-1.004 2.425z" fill="#4C4372"/></g></svg>