<svg width="100" height="85" xmlns="http://www.w3.org/2000/svg"><g fill-rule="nonzero" fill="none"><path d="M70.037 12.052c-.371 0-.742-.141-1.025-.424-5.555-5.555-12.941-8.615-20.798-8.615-7.856 0-15.242 3.06-20.797 8.615a1.448 1.448 0 1 1-2.05-2.049C31.47 3.477 39.585.116 48.215.116s16.744 3.36 22.847 9.463a1.449 1.449 0 0 1-1.024 2.473z" fill="#4C4372"/><path fill="#A4CFF2" d="M68.68 9.336l3.67-3.67.623 4.294.663 4.332-4.313-.643-4.313-.644z"/><path d="M73.636 15.696c-.071 0-.143.017-.214.007l-8.626-1.276a1.443 1.443 0 0 1-.81-2.449l7.338-7.338a1.448 1.448 0 0 1 2.459.817l.624 4.294.642 4.202c.026.109.04.2.04.316 0 .8-.647 1.427-1.446 1.427h-.007zm-5.568-3.7l3.839.573-.576-3.835-3.263 3.263zM51.814 84.885c-8.63 0-16.744-3.361-22.847-9.464a1.449 1.449 0 1 1 2.049-2.049c5.555 5.556 12.941 8.615 20.798 8.615 7.856 0 15.242-3.06 20.797-8.615a1.448 1.448 0 1 1 2.05 2.05c-6.103 6.101-14.217 9.463-22.847 9.463z" fill="#4C4372"/><path fill="#FD919E" d="M31.348 75.664l-3.67 3.67-.623-4.294-.663-4.332 4.313.643 4.313.644z"/><path d="M27.678 80.783a1.447 1.447 0 0 1-1.433-1.24l-.624-4.294-.661-4.322a1.45 1.45 0 0 1 1.646-1.652l8.626 1.287a1.45 1.45 0 0 1 .81 2.457l-7.339 7.34a1.45 1.45 0 0 1-1.025.424zm.443-8.352l.576 3.835 3.263-3.263-3.839-.572z" fill="#4C4372"/><path d="M1.513 66.388V61.56c0-4.063 2.108-7.834 5.568-9.962l13.322-8.195h7.032l13.323 8.195a11.695 11.695 0 0 1 5.568 9.962v4.827H1.513z" fill="#D3E6F8"/><path d="M40.654 51.524l-2.5-1.451v16.333h8.21v-4.92c0-4.062-2.25-7.833-5.71-9.962z" fill="#A4CFF2"/><path d="M46.326 67.837H1.513c-.8 0-1.449-.649-1.449-1.45v-4.826c0-4.532 2.398-8.822 6.258-11.196l13.322-8.195c.228-.14.491-.215.76-.215h7.031c.268 0 .531.074.76.215l13.322 8.195c3.86 2.374 6.258 6.664 6.258 11.196v4.827c0 .8-.649 1.449-1.449 1.449zM2.962 64.939h41.915v-3.378c0-3.533-1.87-6.877-4.878-8.728l-12.974-7.98h-6.212L7.84 52.833a10.314 10.314 0 0 0-4.878 8.728v3.378z" fill="#4C4372"/><path d="M23.92 48.477c-6.105 0-11.053-4.948-11.053-11.052v-7.548c0-6.105 4.948-11.053 11.052-11.053 6.105 0 11.053 4.948 11.053 11.053v7.548c0 6.104-4.948 11.052-11.053 11.052z" fill="#FFF"/><path d="M23.92 49.926c-6.894 0-12.502-5.608-12.502-12.501v-7.548c0-6.894 5.608-12.502 12.501-12.502s12.502 5.608 12.502 12.502v7.548c0 6.893-5.608 12.501-12.502 12.501zm0-29.653c-5.296 0-9.605 4.308-9.605 9.604v7.548c0 5.295 4.309 9.603 9.604 9.603 5.296 0 9.604-4.308 9.604-9.603v-7.548c0-5.296-4.308-9.604-9.604-9.604z" fill="#4C4372"/><path d="M53.646 66.388V61.56c0-4.063 2.107-7.834 5.568-9.962l13.322-8.195h7.032l13.323 8.195a11.695 11.695 0 0 1 5.568 9.962v4.827H53.646z" fill="#FD919E"/><path d="M92.813 51.524l-2.5-1.451v16.333h8.21v-4.92c0-4.062-2.25-7.833-5.71-9.962z" fill="#E8677D"/><path d="M98.459 67.837H53.646c-.8 0-1.45-.649-1.45-1.45v-4.826c0-4.532 2.399-8.822 6.258-11.196l13.323-8.195c.228-.14.491-.215.76-.215h7.031c.268 0 .531.074.76.215l13.322 8.195c3.86 2.374 6.258 6.664 6.258 11.196v4.827c0 .8-.65 1.449-1.45 1.449zm-43.365-2.898H97.01v-3.378c0-3.533-1.87-6.877-4.878-8.728l-12.974-7.98h-6.212l-12.973 7.98a10.313 10.313 0 0 0-4.879 8.728v3.378z" fill="#4C4372"/><path d="M76.052 48.477C69.948 48.477 65 43.53 65 37.425v-7.548c0-6.105 4.948-11.053 11.052-11.053 6.105 0 11.053 4.948 11.053 11.053v7.548c0 6.104-4.948 11.052-11.053 11.052z" fill="#FFF"/><path d="M76.052 49.926c-6.893 0-12.501-5.608-12.501-12.501v-7.548c0-6.894 5.608-12.502 12.501-12.502 6.894 0 12.502 5.608 12.502 12.502v7.548c0 6.893-5.608 12.501-12.502 12.501zm0-29.653c-5.295 0-9.604 4.308-9.604 9.604v7.548c0 5.295 4.308 9.603 9.604 9.603 5.296 0 9.604-4.308 9.604-9.603v-7.548c0-5.296-4.308-9.604-9.604-9.604z" fill="#4C4372"/></g></svg>