<svg width="62" height="85" xmlns="http://www.w3.org/2000/svg"><g fill-rule="nonzero" fill="none"><path d="M30.618 1.4A33.818 33.818 0 0 1 2.435 16.526H1.422v35.567L30.659 83.6l29.237-31.507V16.447h-4.295A28.264 28.264 0 0 1 30.618 1.4z" fill="#FD919E"/><path d="M55.601 16.493c-1.965 0-3.798-.25-5.7-.642v47.097l9.937-10.855v-35.6h-4.237z" fill="#E8677D"/><circle fill="#D3E6F8" cx="30.659" cy="37.864" r="20.02"/><path d="M41.234 20.863c4.12 3.667 5.745 8.038 5.745 13.987 0 11.057-8.963 20.02-20.02 20.02-3.883 0-6.536-.135-9.605-2.049a19.943 19.943 0 0 0 13.305 5.063c11.057 0 20.02-8.963 20.02-20.02 0-7.175-3.774-13.466-9.445-17z" fill="#A4CFF2"/><path d="M30.736 26.14c.66 0 1.184.523 1.184 1.184v.605c1.625.193 3.002.717 4.27 1.515.44.248.825.661.825 1.323 0 .853-.688 1.514-1.542 1.514-.276 0-.55-.082-.826-.247-.965-.579-1.9-.992-2.837-1.212v5.288c4.186 1.047 5.977 2.727 5.977 5.674 0 3.03-2.37 5.04-5.867 5.37v1.654c0 .66-.523 1.184-1.184 1.184-.662 0-1.212-.523-1.212-1.184V47.1c-2.066-.22-3.967-.964-5.647-2.148-.468-.304-.743-.744-.743-1.322 0-.854.66-1.515 1.514-1.515.33 0 .661.11.91.303 1.294.936 2.56 1.57 4.076 1.845v-5.426c-4.022-1.046-5.895-2.561-5.895-5.674 0-2.947 2.342-4.985 5.784-5.26v-.579c0-.661.551-1.185 1.213-1.185zm-1.102 9.391v-4.875c-1.763.165-2.644 1.102-2.644 2.314 0 1.157.523 1.873 2.644 2.561zm2.176 3.829v5.013c1.762-.193 2.726-1.074 2.726-2.396 0-1.212-.605-1.956-2.726-2.617z" fill="#4C4372"/><path d="M30.66 59.153c-11.74 0-21.29-9.55-21.29-21.29 0-11.738 9.55-21.288 21.29-21.288 11.738 0 21.288 9.55 21.288 21.289s-9.55 21.289-21.289 21.289zm0-40.04c-10.34 0-18.752 8.411-18.752 18.751 0 10.34 8.411 18.751 18.751 18.751 10.34 0 18.752-8.411 18.752-18.75 0-10.34-8.412-18.752-18.752-18.752z" fill="#4C4372"/><path d="M30.66 84.868c-.354 0-.69-.146-.93-.405L.491 52.956a1.269 1.269 0 0 1-.339-.863V16.526c0-.7.568-1.268 1.269-1.268h1.013A32.475 32.475 0 0 0 29.561.698a1.268 1.268 0 0 1 2.179.108A26.933 26.933 0 0 0 55.6 15.179h4.295c.7 0 1.269.568 1.269 1.268v35.647c0 .32-.121.628-.339.863L31.59 84.463c-.24.259-.577.405-.93.405zM2.69 51.595l27.97 30.14 27.968-30.14v-33.88H55.6A29.457 29.457 0 0 1 30.508 3.758 34.995 34.995 0 0 1 2.691 17.794v33.801z" fill="#4C4372"/></g></svg>