<svg width="118" height="85" xmlns="http://www.w3.org/2000/svg"><g fill-rule="nonzero" fill="none"><circle fill="#FD919E" cx="77.304" cy="28.626" r="19.983"/><path d="M77.304 8.643c-1.018 0-2.018.078-2.995.224 9.616 1.446 16.989 9.74 16.989 19.76 0 10.018-7.373 18.313-16.989 19.758.977.147 1.977.224 2.995.224 11.036 0 19.983-8.946 19.983-19.983 0-11.036-8.947-19.983-19.983-19.983z" fill="#E8677D"/><path d="M77.189 18.29c.588 0 1.054.466 1.054 1.055v.539a8.926 8.926 0 0 1 3.8 1.349c.393.22.736.588.736 1.176 0 .76-.613 1.349-1.373 1.349a1.42 1.42 0 0 1-.736-.22c-.858-.516-1.691-.884-2.525-1.08v4.708c3.727.931 5.32 2.427 5.32 5.05 0 2.697-2.108 4.487-5.222 4.781v1.471c0 .589-.466 1.055-1.054 1.055-.588 0-1.079-.466-1.079-1.055v-1.52a10.603 10.603 0 0 1-5.026-1.912c-.417-.27-.662-.662-.662-1.177 0-.76.589-1.349 1.349-1.349.294 0 .588.098.809.27 1.152.834 2.28 1.398 3.628 1.643v-4.83c-3.579-.932-5.246-2.28-5.246-5.05 0-2.624 2.084-4.439 5.149-4.684v-.515c0-.588.49-1.054 1.078-1.054zm-.981 8.361v-4.34c-1.57.148-2.354.981-2.354 2.06 0 1.03.466 1.667 2.354 2.28zm1.937 3.408v4.462c1.57-.171 2.427-.956 2.427-2.133 0-1.079-.54-1.74-2.427-2.33z" fill="#4C4372"/><path fill="#FFF" d="M43.019 13.02l-5.395-2.95 5.395-2.951 2.95-5.394 2.95 5.394 5.395 2.95-5.394 2.95-2.95 5.395z"/><path fill="#D3E6F8" d="M28.442 40.919h10.386v35.668H28.442z"/><path fill="#A4CFF2" d="M28.442 66.201h10.386v10.386H28.442z"/><path d="M23.708 82.26H1.648V35.245h22.06a4.734 4.734 0 0 1 4.735 4.734v37.547a4.734 4.734 0 0 1-4.735 4.734z" fill="#A4CFF2"/><path d="M23.708 82.26H1.648V69.65h26.794v7.876a4.734 4.734 0 0 1-4.734 4.734z" fill="#7BABF1"/><path d="M38.876 46.386H56.49c.784 0 1.546.263 2.163.747L74.278 59.39l32.999-9.8a6.4 6.4 0 1 1 4.78 11.81L71.473 82.545a6.439 6.439 0 0 1-6.323-.21l-15.96-9.71H38.875v-26.24z" fill="#FFF"/><path d="M77.304 50.244c-11.92 0-21.618-9.698-21.618-21.618 0-11.92 9.698-21.618 21.618-21.618 11.92 0 21.617 9.698 21.617 21.618 0 11.92-9.697 21.618-21.617 21.618zm0-39.966c-10.118 0-18.349 8.231-18.349 18.348 0 10.118 8.231 18.349 18.349 18.349 10.117 0 18.348-8.231 18.348-18.349 0-10.117-8.23-18.348-18.348-18.348zM45.97 20.049a1.635 1.635 0 0 1-1.435-.85l-2.72-4.975-4.975-2.72a1.635 1.635 0 0 1 0-2.869l4.975-2.72L44.535.94a1.635 1.635 0 0 1 2.868 0l2.72 4.975 4.975 2.72a1.635 1.635 0 0 1 0 2.869l-4.974 2.72-2.72 4.975c-.287.524-.837.85-1.435.85zm-4.939-9.98l2.772 1.516c.274.15.5.376.65.65l1.516 2.772 1.516-2.772c.15-.274.375-.5.65-.65l2.772-1.516-2.772-1.516c-.275-.15-.5-.375-.65-.65l-1.516-2.772-1.516 2.772c-.15.275-.376.5-.65.65l-2.772 1.516zM38.828 78.221H28.442a1.635 1.635 0 0 1-1.634-1.635V40.92c0-.903.731-1.635 1.634-1.635h10.386c.903 0 1.634.732 1.634 1.635v35.667c0 .903-.731 1.635-1.634 1.635zm-8.751-3.27h7.116V42.554h-7.116v32.399z" fill="#4C4372"/><path d="M23.708 83.895H1.648A1.635 1.635 0 0 1 .012 82.26V35.245c0-.903.732-1.635 1.634-1.635h22.061a6.376 6.376 0 0 1 6.37 6.369v37.547a6.376 6.376 0 0 1-6.37 6.369zm-20.426-3.27h20.426c1.71 0 3.1-1.39 3.1-3.099V39.98c0-1.71-1.39-3.1-3.1-3.1H3.282v43.746zM68.498 84.91a8.071 8.071 0 0 1-4.197-1.177L48.732 74.26h-9.856a1.635 1.635 0 0 1-1.634-1.634v-26.24c0-.902.731-1.634 1.634-1.634H56.49c1.145 0 2.27.389 3.172 1.095l14.96 11.735 32.19-9.56a8.033 8.033 0 0 1 2.288-.334c3.292 0 6.302 2.064 7.49 5.136a8.027 8.027 0 0 1-3.779 10.023L72.23 83.997a8.106 8.106 0 0 1-3.731.913zM40.511 70.99h8.68c.3 0 .593.082.85.238L66 80.941a4.804 4.804 0 0 0 4.717.156L111.3 59.948a4.76 4.76 0 0 0 2.242-5.944 4.794 4.794 0 0 0-4.443-3.047 4.77 4.77 0 0 0-1.357.198l-33 9.8a1.634 1.634 0 0 1-1.473-.28L57.644 48.42a1.879 1.879 0 0 0-1.154-.398H40.51v22.97z" fill="#4C4372"/><path fill="#FFF" d="M98.92 35.266l-5.394-2.95 5.394-2.95 2.95-5.395 2.951 5.395 5.394 2.95-5.394 2.95-2.95 5.395z"/><path d="M101.87 42.295a1.635 1.635 0 0 1-1.434-.85l-2.72-4.974-4.974-2.72a1.635 1.635 0 0 1 0-2.869l4.974-2.72 2.72-4.975a1.635 1.635 0 0 1 2.869 0l2.72 4.974L111 30.882a1.635 1.635 0 0 1 0 2.868l-4.975 2.72-2.72 4.975c-.287.524-.837.85-1.434.85zm-4.938-9.98l2.772 1.517c.275.15.5.375.65.65l1.516 2.772 1.516-2.772c.15-.275.376-.5.65-.65l2.772-1.516-2.772-1.516c-.274-.15-.5-.376-.65-.65l-1.516-2.772-1.516 2.772c-.15.274-.375.5-.65.65l-2.772 1.516zM70.337 67.16a5.689 5.689 0 0 1-3.33-1.068l-13.659-9.983a1.635 1.635 0 0 1 1.93-2.64l13.649 9.976c.915.66 2.2.59 3.047-.173a2.43 2.43 0 0 0 .802-1.893 2.431 2.431 0 0 0-.93-1.833L57.643 48.42a1.635 1.635 0 0 1 2.016-2.573l14.202 11.126a5.694 5.694 0 0 1 2.182 4.293 5.694 5.694 0 0 1-1.88 4.433 5.71 5.71 0 0 1-3.827 1.46z" fill="#4C4372"/></g></svg>
