<svg width="102" height="85" xmlns="http://www.w3.org/2000/svg"><g fill-rule="nonzero" fill="none"><path d="M80.503 35.304v-8.32h-5.914a23.83 23.83 0 0 0-4.021-9.717l4.378-4.385-5.867-5.87-4.443 4.376a24.049 24.049 0 0 0-9.768-4.023V.899h-8.32v6.466c-3.598.618-6.784 2.02-9.627 4.021l-4.34-4.378-5.848 5.867 4.388 4.392a23.816 23.816 0 0 0-4.012 9.717h-6.196v8.32h6.196c.619 3.598 2.02 6.835 4.021 9.678l-4.378 4.365 5.868 5.86 4.301-4.38c2.843 2 6.029 3.4 9.627 4.018v6.094h8.32v-6.094a24.046 24.046 0 0 0 9.768-4.021l4.41 4.378 5.884-5.868-4.37-4.352c2.001-2.843 3.41-6.08 4.03-9.678h5.913zM50.849 47.932c-9.293 0-16.827-7.534-16.827-16.827 0-9.294 7.534-16.827 16.827-16.827 9.293 0 16.827 7.534 16.827 16.827 0 9.293-7.534 16.827-16.827 16.827z" fill="#D3E6F8"/><path d="M54.868 62.513h-8.32a1.35 1.35 0 0 1-1.35-1.349v-5.222a25.56 25.56 0 0 1-7.912-3.344l-3.352 3.563a1.35 1.35 0 0 1-1.934.032l-5.867-5.833a1.35 1.35 0 0 1 .005-1.918l3.579-3.523c-1.647-2.551-2.762-5.2-3.386-8.04h-5.418a1.35 1.35 0 0 1-1.35-1.35v-8.32c0-.745.604-1.35 1.35-1.35h5.416c.647-2.995 1.799-5.834 3.373-8.318l-3.643-3.722a1.35 1.35 0 0 1 .006-1.893L31.87 6.06a1.353 1.353 0 0 1 1.926.009l3.473 3.57c2.463-1.576 5.168-2.725 7.928-3.37V1.35c0-.745.604-1.349 1.35-1.349h8.32c.744 0 1.348.604 1.348 1.35v4.892a24.952 24.952 0 0 1 8.442 3.438l3.825-3.62a1.35 1.35 0 0 1 1.884.028l5.868 5.899c.522.524.523 1.371.004 1.898l-3.606 3.659a25.744 25.744 0 0 1 3.4 8.316h4.47c.745 0 1.349.604 1.349 1.349v8.32a1.35 1.35 0 0 1-1.35 1.35h-4.47c-.624 2.815-1.747 5.462-3.412 8.036l3.542 3.453a1.35 1.35 0 0 1 .008 1.925l-5.925 5.867a1.35 1.35 0 0 1-1.89.008l-3.71-3.614a24.942 24.942 0 0 1-8.428 3.414v5.196a1.35 1.35 0 0 1-1.35 1.35zm-6.971-2.698h5.622v-4.97c0-.662.48-1.226 1.133-1.332 3.482-.563 6.548-1.804 9.373-3.793a1.35 1.35 0 0 1 1.718.137l3.545 3.454 4.008-3.97-3.366-3.28a1.35 1.35 0 0 1-.162-1.743c2.024-2.877 3.275-5.827 3.824-9.018a1.35 1.35 0 0 1 1.33-1.12h4.231v-5.622h-4.232a1.35 1.35 0 0 1-1.33-1.121c-.578-3.367-1.89-6.576-3.794-9.281a1.35 1.35 0 0 1 .142-1.724l3.44-3.49-3.996-4.018-3.653 3.457a1.35 1.35 0 0 1-1.704.124c-2.846-2.003-5.912-3.249-9.373-3.809a1.35 1.35 0 0 1-1.134-1.332V2.698h-5.622v4.667a1.35 1.35 0 0 1-1.106 1.327c-3.124.573-6.211 1.886-8.927 3.797a1.35 1.35 0 0 1-1.744-.163l-3.298-3.392-3.905 3.946 3.48 3.556a1.35 1.35 0 0 1 .139 1.72c-1.878 2.667-3.18 5.877-3.765 9.282a1.35 1.35 0 0 1-1.33 1.12h-5.18v5.622h5.18a1.35 1.35 0 0 1 1.33 1.12c.555 3.228 1.796 6.178 3.795 9.018a1.35 1.35 0 0 1-.157 1.738l-3.406 3.352 3.916 3.894 3.186-3.386a1.35 1.35 0 0 1 1.759-.179c2.694 1.896 5.78 3.203 8.927 3.78.64.118 1.106.676 1.106 1.328v4.97zM51.18 49.28c-10.022 0-18.176-8.154-18.176-18.176 0-10.023 8.154-18.176 18.176-18.176 10.023 0 18.176 8.153 18.176 18.176 0 10.022-8.153 18.176-18.176 18.176zm0-33.654c-8.534 0-15.477 6.943-15.477 15.478 0 8.534 6.943 15.477 15.477 15.477 8.535 0 15.478-6.943 15.478-15.477 0-8.535-6.943-15.478-15.478-15.478z" fill="#4C4372"/><path d="M16.614 74.69H1.425V41.348h15.19a2.84 2.84 0 0 1 2.84 2.84V71.85a2.84 2.84 0 0 1-2.84 2.84z" fill="#D3E6F8"/><path d="M16.614 41.376h-3.347v33.28h3.347c1.569 0 2.95-1.238 2.95-2.806V44.189c0-1.57-1.381-2.813-2.95-2.813z" fill="#A4CFF2"/><path d="M85.026 74.69h15.189V41.348h-15.19a2.84 2.84 0 0 0-2.84 2.84V71.85a2.84 2.84 0 0 0 2.84 2.84z" fill="#FD919E"/><path fill="#E8677D" d="M93.547 41.348h6.668v33.341h-6.668z"/><path d="M16.614 76.039H1.425a1.35 1.35 0 0 1-1.349-1.35V41.35c0-.746.604-1.35 1.35-1.35h15.188c2.31 0 4.19 1.88 4.19 4.19v27.66c0 2.31-1.88 4.19-4.19 4.19zM2.774 73.34h13.84c.822 0 1.491-.669 1.491-1.49V44.188c0-.822-.669-1.49-1.49-1.49H2.774V73.34z" fill="#4C4372"/><path d="M40.941 72.183H19.563a1.35 1.35 0 0 1-1.349-1.35v-25.41c0-.745.605-1.349 1.35-1.349h7.045c.988-3.187 3.943-5.397 7.417-5.397h17.041a1.35 1.35 0 0 1 1.282 1.77L42.223 71.256a1.349 1.349 0 0 1-1.282.928zm-20.028-2.699h19.051l9.24-28.108H34.026c-2.532 0-4.64 1.787-5.012 4.249a1.35 1.35 0 0 1-1.334 1.147h-6.767v22.712zM100.215 76.039h-15.19c-2.31 0-4.189-1.88-4.189-4.19V44.19c0-2.31 1.88-4.19 4.19-4.19h15.189c.745 0 1.349.604 1.349 1.35v33.34a1.35 1.35 0 0 1-1.35 1.35zm-15.19-33.342c-.821 0-1.49.67-1.49 1.491V71.85c0 .822.669 1.49 1.49 1.49h13.84V42.697h-13.84z" fill="#4C4372"/><path d="M62.582 81.79a3.804 3.804 0 1 0 6.466-4.01L49.115 45.897l1.952-5.87h-17.04c-3.211 0-5.871 2.248-6.347 5.396h-8.117v25.41h9.199l6.855 11.005c1.108 1.786 3.453 2.312 5.238 1.204l3.233-1.97-6.373-10.239h.035l6.855 11.005c1.108 1.786 3.453 2.312 5.238 1.204l3.233-2.017-6.004-9.686 6.522 10.455a3.804 3.804 0 0 0 5.237 1.226l3.233-2.006-6.404-10.276" fill="#FFF"/><path d="M47.82 84.97a5.096 5.096 0 0 1-4.128-2.076l-2.135 1.3a5.176 5.176 0 0 1-2.724.776 5.097 5.097 0 0 1-4.362-2.42l-6.458-10.367h-8.45a1.35 1.35 0 0 1-1.349-1.35v-25.41c0-.745.605-1.349 1.35-1.349h7.045c.988-3.187 3.943-5.397 7.417-5.397h17.041a1.349 1.349 0 0 1 1.28 1.775l-1.751 5.268L70.19 77.065a5.122 5.122 0 0 1 .64 3.897 5.12 5.12 0 0 1-2.3 3.203 5.143 5.143 0 0 1-2.713.775 5.122 5.122 0 0 1-4.15-2.093l-2.126 1.32a5.147 5.147 0 0 1-2.714.774 5.12 5.12 0 0 1-4.141-2.083l-2.13 1.329a5.185 5.185 0 0 1-2.736.783zM37.716 69.484h.035c.466 0 .9.24 1.146.636l6.855 11.005a2.417 2.417 0 0 0 2.07 1.147c.461 0 .915-.13 1.311-.376l2.089-1.303-5.296-8.543a1.35 1.35 0 0 1 2.292-1.425l6.521 10.455a2.443 2.443 0 0 0 2.09 1.163 2.45 2.45 0 0 0 1.292-.37l3.233-2.005a1.35 1.35 0 0 1 1.834.398l.518.777.024.037a2.444 2.444 0 0 0 2.09 1.162c.454 0 .9-.128 1.29-.37a2.439 2.439 0 0 0 1.096-1.526 2.438 2.438 0 0 0-.304-1.854l-19.93-31.88a1.349 1.349 0 0 1-.136-1.14l1.362-4.096h-15.17c-2.533 0-4.64 1.787-5.013 4.249a1.35 1.35 0 0 1-1.334 1.147h-6.767v22.712h7.849c.466 0 .899.24 1.145.636l6.855 11.005a2.417 2.417 0 0 0 2.07 1.147c.462 0 .915-.13 1.312-.376l2.079-1.266-5.653-9.083a1.348 1.348 0 0 1 1.145-2.063z" fill="#4C4372"/><path d="M64.854 37.397h-11.78c-1.906 0-3.722.81-4.994 2.228L36.493 52.542a2.152 2.152 0 0 0 .21 3.08l.232.196a7.28 7.28 0 0 0 9.663-.223l5.45-5.078L64.65 70.738h17.535V45.3l-9.9-5.867a14.582 14.582 0 0 0-7.432-2.036z" fill="#FFF"/><path d="M82.186 72.087H64.65a1.35 1.35 0 0 1-1.145-.635l-11.737-18.83-4.25 3.96a8.605 8.605 0 0 1-5.879 2.31 8.64 8.64 0 0 1-5.577-2.044l-.23-.196A3.474 3.474 0 0 1 34.6 54.22a3.474 3.474 0 0 1 .887-2.577l11.587-12.917a8.067 8.067 0 0 1 5.998-2.677h11.78c2.856 0 5.664.77 8.12 2.225l9.9 5.866c.41.243.661.684.661 1.161v25.438c0 .745-.603 1.35-1.348 1.35zM65.399 69.39h15.437v-23.32l-9.238-5.475a13.24 13.24 0 0 0-6.745-1.848h-11.78c-1.52 0-2.974.649-3.989 1.78L37.497 53.443a.797.797 0 0 0-.203.592.797.797 0 0 0 .282.558l.23.195a5.937 5.937 0 0 0 3.834 1.406 5.914 5.914 0 0 0 4.039-1.587l5.448-5.077a1.35 1.35 0 0 1 2.065.273L65.399 69.39zM62.066 82.363c-.425 0-.844-.2-1.106-.575l-8.363-11.922a1.35 1.35 0 1 1 2.209-1.55l8.363 11.922a1.35 1.35 0 0 1-1.103 2.125z" fill="#4C4372"/></g></svg>