<svg width="86" height="85" xmlns="http://www.w3.org/2000/svg"><g fill-rule="nonzero" fill="none"><path d="M1.352 83.74v-3.68a8.916 8.916 0 0 1 4.245-7.594l10.156-6.247h5.36l10.157 6.247a8.916 8.916 0 0 1 4.245 7.594v3.68H1.352z" fill="#A4CFF2"/><path d="M31.253 72.466l-1.784-1.107v12.438h6.014V80.06a8.902 8.902 0 0 0-4.23-7.594z" fill="#7BABF1"/><path d="M25.82 37.52v-3.68a8.916 8.916 0 0 1 4.244-7.595l10.157-6.247h5.36l10.157 6.247a8.916 8.916 0 0 1 4.244 7.594v3.68H25.82z" fill="#FD919E"/><path d="M35.514 84.943H1.352A1.203 1.203 0 0 1 .149 83.74v-3.68c0-3.488 1.846-6.79 4.817-8.619l10.157-6.247c.19-.116.408-.178.63-.178h5.36c.223 0 .441.062.631.178L31.9 71.441a10.185 10.185 0 0 1 4.818 8.62v3.68c0 .664-.54 1.202-1.204 1.202zm-32.96-2.406h31.758V80.06a7.763 7.763 0 0 0-3.672-6.57l-9.867-6.068h-4.68L6.227 73.49a7.763 7.763 0 0 0-3.672 6.57v2.476z" fill="#4C4372"/><path d="M18.433 70.086a8.426 8.426 0 0 1-8.426-8.426v-5.754a8.426 8.426 0 0 1 16.852 0v5.754a8.426 8.426 0 0 1-8.426 8.426z" fill="#FFF"/><path d="M18.433 71.29c-5.31 0-9.628-4.32-9.628-9.63v-5.754c0-5.309 4.319-9.628 9.628-9.628 5.31 0 9.629 4.32 9.629 9.628v5.754c0 5.31-4.32 9.63-9.629 9.63zm0-22.607c-3.983 0-7.223 3.24-7.223 7.223v5.754c0 3.983 3.24 7.223 7.223 7.223 3.983 0 7.223-3.24 7.223-7.223v-5.754c0-3.982-3.24-7.223-7.223-7.223zM42.9 52.925a1.203 1.203 0 0 1-1.202-1.203V42.5a1.203 1.203 0 1 1 2.406 0v9.222c0 .664-.539 1.203-1.203 1.203z" fill="#4C4372"/><path d="M34.221 59.465a1.203 1.203 0 0 1-.756-2.139l4.34-3.503 4.339-3.514a1.203 1.203 0 0 1 1.513-.001l8.68 7.019a1.203 1.203 0 1 1-1.512 1.87l-7.923-6.406-3.584 2.903-4.342 3.504c-.223.18-.49.267-.755.267z" fill="#4C4372"/><path d="M50.288 83.74v-3.68a8.916 8.916 0 0 1 4.244-7.594l10.156-6.247h5.361l10.157 6.247a8.916 8.916 0 0 1 4.244 7.594v3.68H50.288z" fill="#A4CFF2"/><path d="M80.168 72.466l-1.784-1.107v12.438H84.4V80.06a8.902 8.902 0 0 0-4.23-7.594z" fill="#7BABF1"/><path d="M55.71 26.188l-1.783-1.106v12.406h6.014v-3.706a8.903 8.903 0 0 0-4.23-7.594z" fill="#E8677D"/><path d="M84.45 84.943H50.288a1.203 1.203 0 0 1-1.203-1.203v-3.68c0-3.488 1.845-6.79 4.817-8.619l10.156-6.247c.19-.116.408-.178.63-.178h5.361c.223 0 .44.062.63.178l10.157 6.247a10.185 10.185 0 0 1 4.817 8.62v3.68c0 .664-.539 1.202-1.203 1.202zm-32.96-2.406h31.757V80.06a7.764 7.764 0 0 0-3.672-6.57l-9.866-6.068h-4.68l-9.867 6.069a7.763 7.763 0 0 0-3.672 6.57v2.476z" fill="#4C4372"/><path d="M67.369 70.086a8.426 8.426 0 0 1-8.426-8.426v-5.754a8.426 8.426 0 1 1 16.852 0v5.754a8.426 8.426 0 0 1-8.426 8.426z" fill="#FFF"/><path d="M67.369 71.29c-5.31 0-9.629-4.32-9.629-9.63v-5.754c0-5.309 4.32-9.628 9.629-9.628 5.309 0 9.628 4.32 9.628 9.628v5.754c0 5.31-4.319 9.63-9.628 9.63zm0-22.607c-3.983 0-7.223 3.24-7.223 7.223v5.754c0 3.983 3.24 7.223 7.223 7.223 3.982 0 7.223-3.24 7.223-7.223v-5.754c0-3.982-3.24-7.223-7.223-7.223zM59.982 38.722H25.82a1.203 1.203 0 0 1-1.203-1.203v-3.68c0-3.488 1.846-6.79 4.817-8.618l10.157-6.247c.189-.117.407-.179.63-.179h5.36c.223 0 .441.062.63.179l10.157 6.247a10.184 10.184 0 0 1 4.817 8.618v3.68c0 .665-.539 1.203-1.203 1.203zm-32.96-2.405H58.78v-2.478a7.763 7.763 0 0 0-3.672-6.57l-9.866-6.068h-4.68l-9.866 6.069a7.764 7.764 0 0 0-3.672 6.57v2.477z" fill="#4C4372"/><path d="M42.9 23.866a8.426 8.426 0 0 1-8.425-8.426V9.686a8.426 8.426 0 0 1 16.852 0v5.754a8.426 8.426 0 0 1-8.426 8.426z" fill="#FFF"/><path d="M42.9 25.068c-5.308 0-9.628-4.319-9.628-9.628V9.686c0-5.31 4.32-9.63 9.629-9.63 5.31 0 9.629 4.32 9.629 9.63v5.754c0 5.309-4.32 9.628-9.63 9.628zm0-22.605c-3.982 0-7.222 3.24-7.222 7.223v5.754c0 3.982 3.24 7.223 7.223 7.223 3.983 0 7.223-3.24 7.223-7.223V9.686c0-3.983-3.24-7.223-7.223-7.223z" fill="#4C4372"/></g></svg>