<svg width="85" height="85" xmlns="http://www.w3.org/2000/svg"><g fill-rule="nonzero" fill="none"><g fill="#4C4372"><path d="M78.95 43.864H6.05a1.364 1.364 0 0 1 0-2.728h72.9a1.364 1.364 0 1 1 0 2.728z"/><path d="M68.274 69.638a1.36 1.36 0 0 1-.964-.4L15.762 17.69a1.364 1.364 0 0 1 1.928-1.928L69.238 67.31a1.364 1.364 0 0 1-.964 2.328z"/><path d="M42.5 80.314c-.753 0-1.364-.61-1.364-1.364V6.05a1.364 1.364 0 1 1 2.728 0v72.9c0 .753-.61 1.364-1.364 1.364z"/><path d="M16.726 69.638a1.364 1.364 0 0 1-.964-2.328L67.31 15.761a1.364 1.364 0 0 1 1.928 1.929L17.69 69.239a1.36 1.36 0 0 1-.964.399z"/></g><path d="M59.068 35.636c0-9.45-7.912-17.053-17.473-16.544-8.52.453-15.357 7.428-15.653 15.954-.2 5.783 2.564 10.933 6.891 14.047 1.817 1.307 2.87 3.427 2.87 5.665v5.438a6.797 6.797 0 0 0 13.595 0V54.76c0-2.23 1.039-4.353 2.85-5.653 4.19-3.007 6.92-7.92 6.92-13.47z" fill="#FD919E"/><path d="M35.703 54.758v5.438a6.797 6.797 0 0 0 13.595 0V54.76v-.001H35.702z" fill="#FFF"/><path d="M42.5 68.357c-4.5 0-8.16-3.661-8.16-8.161v-5.438c0-1.817-.862-3.521-2.303-4.559A17.926 17.926 0 0 1 24.579 35c.32-9.195 7.761-16.78 16.943-17.269 4.982-.265 9.708 1.473 13.314 4.892 3.608 3.421 5.595 8.043 5.595 13.014 0 5.763-2.799 11.213-7.488 14.577-1.429 1.026-2.282 2.725-2.282 4.546v5.437c0 4.5-3.661 8.16-8.161 8.16zm.007-47.926c-.279 0-.559.007-.84.022-7.783.414-14.092 6.845-14.362 14.64a15.203 15.203 0 0 0 6.325 12.892c2.152 1.549 3.437 4.08 3.437 6.773v5.438a5.44 5.44 0 0 0 5.433 5.433 5.44 5.44 0 0 0 5.434-5.433v-5.438c0-2.697 1.278-5.224 3.42-6.76a15.252 15.252 0 0 0 6.35-12.363c0-4.214-1.684-8.133-4.744-11.034a15.071 15.071 0 0 0-10.453-4.17z" fill="#4C4372"/><path d="M49.297 56.122H35.703a1.364 1.364 0 0 1 0-2.728h13.594a1.364 1.364 0 0 1 0 2.728zM49.297 61.56H35.703a1.364 1.364 0 0 1 0-2.728h13.594a1.364 1.364 0 0 1 0 2.728z" fill="#4C4372"/><g transform="translate(1.364 1.364)" fill="#D3E6F8"><circle cx="41.136" cy="4.686" r="4.522"/><circle cx="41.136" cy="77.587" r="4.522"/><circle cx="77.587" cy="41.136" r="4.522"/><circle cx="4.686" cy="41.136" r="4.522"/><circle cx="15.362" cy="15.362" r="4.522"/><circle cx="66.911" cy="66.911" r="4.522"/><circle cx="66.911" cy="15.362" r="4.522"/><circle cx="15.362" cy="66.911" r="4.522"/></g><g fill="#4C4372"><path d="M42.5 11.936a5.893 5.893 0 0 1-5.886-5.886A5.893 5.893 0 0 1 42.5.164a5.893 5.893 0 0 1 5.886 5.886 5.893 5.893 0 0 1-5.886 5.886zm0-9.045a3.162 3.162 0 0 0-3.159 3.159A3.162 3.162 0 0 0 42.5 9.209a3.162 3.162 0 0 0 3.159-3.16A3.162 3.162 0 0 0 42.5 2.892zM42.5 84.836a5.893 5.893 0 0 1-5.886-5.886 5.893 5.893 0 0 1 5.886-5.886 5.893 5.893 0 0 1 5.886 5.886 5.893 5.893 0 0 1-5.886 5.886zm0-9.044a3.162 3.162 0 0 0-3.159 3.158 3.162 3.162 0 0 0 3.159 3.16 3.162 3.162 0 0 0 3.159-3.16 3.162 3.162 0 0 0-3.159-3.158zM78.95 48.386a5.893 5.893 0 0 1-5.886-5.886 5.893 5.893 0 0 1 5.886-5.886 5.893 5.893 0 0 1 5.886 5.886 5.893 5.893 0 0 1-5.886 5.886zm0-9.045a3.162 3.162 0 0 0-3.158 3.159 3.162 3.162 0 0 0 3.158 3.159 3.162 3.162 0 0 0 3.16-3.159 3.162 3.162 0 0 0-3.16-3.159zM6.05 48.386A5.893 5.893 0 0 1 .164 42.5a5.893 5.893 0 0 1 5.886-5.886 5.893 5.893 0 0 1 5.886 5.886 5.893 5.893 0 0 1-5.886 5.886zm0-9.045A3.162 3.162 0 0 0 2.89 42.5a3.162 3.162 0 0 0 3.16 3.159A3.162 3.162 0 0 0 9.208 42.5a3.162 3.162 0 0 0-3.158-3.159zM16.726 22.612a5.848 5.848 0 0 1-4.162-1.724 5.847 5.847 0 0 1-1.724-4.162c0-1.572.612-3.05 1.724-4.162a5.893 5.893 0 0 1 8.324 0 5.847 5.847 0 0 1 1.724 4.162c0 1.572-.613 3.05-1.724 4.162a5.848 5.848 0 0 1-4.162 1.724zm0-9.044a3.15 3.15 0 0 0-2.234.924 3.138 3.138 0 0 0-.925 2.234c0 .844.328 1.637.925 2.233.597.597 1.39.926 2.234.926.844 0 1.637-.33 2.233-.926a3.162 3.162 0 0 0 0-4.467 3.15 3.15 0 0 0-2.233-.924zM68.274 74.157a5.868 5.868 0 0 1-4.162-1.72 5.847 5.847 0 0 1-1.724-4.163c0-1.572.613-3.05 1.724-4.162a5.848 5.848 0 0 1 4.162-1.724c1.572 0 3.05.612 4.162 1.724a5.847 5.847 0 0 1 1.724 4.162c0 1.572-.612 3.05-1.724 4.162a5.868 5.868 0 0 1-4.162 1.721zm0-9.042c-.844 0-1.637.33-2.233.926a3.162 3.162 0 0 0 0 4.467 3.162 3.162 0 0 0 4.467 0c.597-.597.925-1.39.925-2.234 0-.844-.328-1.637-.925-2.233a3.138 3.138 0 0 0-2.234-.926zM68.274 22.612a5.847 5.847 0 0 1-4.162-1.724 5.848 5.848 0 0 1-1.724-4.162c0-1.572.613-3.05 1.724-4.162a5.893 5.893 0 0 1 8.324 0 5.847 5.847 0 0 1 1.724 4.162c0 1.572-.612 3.05-1.724 4.162a5.848 5.848 0 0 1-4.162 1.724zm0-9.044c-.809 0-1.617.308-2.233.924a3.162 3.162 0 0 0 0 4.467c.596.597 1.39.926 2.233.926.844 0 1.637-.33 2.234-.926.597-.596.925-1.39.925-2.233 0-.844-.328-1.637-.925-2.234a3.15 3.15 0 0 0-2.234-.924zM16.726 74.157a5.868 5.868 0 0 1-4.162-1.72 5.847 5.847 0 0 1-1.724-4.163c0-1.572.612-3.05 1.724-4.162a5.848 5.848 0 0 1 4.162-1.724c1.572 0 3.05.612 4.162 1.724a5.848 5.848 0 0 1 1.724 4.162c0 1.572-.613 3.05-1.724 4.162a5.868 5.868 0 0 1-4.162 1.721zm0-9.042c-.844 0-1.637.33-2.234.926a3.138 3.138 0 0 0-.925 2.233c0 .844.328 1.637.925 2.234a3.162 3.162 0 0 0 4.467 0 3.162 3.162 0 0 0 0-4.467 3.138 3.138 0 0 0-2.233-.926z"/></g></g></svg>